<svg xmlns="http://www.w3.org/2000/svg" height="180px" viewBox="0 -960 960 960" width="180px"
    fill="#4d7b9e">
    <rect width="960" height="960" y="-960" fill="#001130"/>
    <path
        d="M260-355q-12.5 0-21.25-9.04T230-386v-74h57v42h80v-187h58v219q0 12.92-9.04 21.96Q406.92-355 394-355H260Zm254.38 0q-18.63 0-29-10.51Q475-376.03 475-394v-46h58v27h94v-49H514.29q-17.41 0-28.35-10.3Q475-482.6 475-500.92v-64.72q0-18.33 10.51-28.85Q496.03-605 514-605h131.62q18.63 0 29.01 10.51Q685-583.97 685-566v46h-58v-27h-94v48h112.71q17.42 0 28.35 10.8Q685-477.4 685-459.18v64.36q0 19.07-10.51 29.44Q663.97-355 646-355H514.38Z" />
    <path
        d="M271-19q-38.21 0-65.11-26.6Q179-72.2 179-110v-740q0-37.59 26.89-64.79Q232.78-942 271-942h417q37.21 0 64.61 26.89Q780-888.21 780-850v128.63q17.1 7.42 29.55 23.35Q822-682.09 822-662.42V-591q0 21-12.45 37.47-12.45 16.48-29.55 23.62V-110q0 37.8-27.39 64.4Q725.21-19 688-19H271Zm-1-90h419v-743H270v743Zm0 0v-743 743Zm113-93h194q18.1 0 31.05-13.36T621-247.97q0-19.69-12.37-32.36Q596.25-293 577-293H383q-19.55 0-32.78 13.36Q337-266.27 337-246.75q0 19.09 13.33 31.92Q363.65-202 383-202Z" />
</svg>